<svg xmlns="http://www.w3.org/2000/svg" viewBox="0 0 377.38 376.5"><defs><style>.cls-1{fill:#231f20;}</style></defs><g id="Layer_2" data-name="Layer 2"><g id="Layer_1-2" data-name="Layer 1"><g id="Layer_5" data-name="Layer 5"><path d="M239,345.38l-1.35,2.05c-5.1,7.74-13.79,19.06-18.9,26.81.64-.11,1.27-.22,1.91-.35,4.47-6.78,12.53-17.14,17-23.92l1.35-2.05,1.64-5C240.08,343.72,239.53,344.55,239,345.38ZM327.22,67.71l-1.74.05H289.24c3.94-8.8,10.32-19.38,14.27-28.2l-1.15-.88c-3.83,8.59-10.12,18.92-13.95,27.49l-.48,0c-3.79-13.57-7.58-30.39-11.38-44l-1.72-.92c4,14.25,8,31.78,12,46.17L239.07,40c-.19.44-.39.88-.59,1.31l3.22,1.83q21.75,12.51,43.49,25c1.42.81,1.86,1.48,1.31,3.19-4.6,14.51-9.08,29.08-13.77,44.16-12.89-21.7-25.81-43.33-38.5-64.67-.23.52-.43,1-.67,1.51l.17.29c12.6,21.21,25.17,42.34,37.87,63.71-21.21-2.33-42.47-4.8-63.53-7.11l-.23.53c-.2.46-.24.5-.43,1l64.23,7-57.4,78.79c-2.37-5.61-4.59-10.87-6.79-16.12-5-11.92-10.24-24-15.22-35.91a7,7,0,0,0-.33.83l-.46.85c6.44,15.43,13.16,31,19.58,46.34l-.46.27c-2.23-2.58-4.49-5.17-6.72-7.78q-20.52-23.91-41-47.84c-.46-.54-.93-1.65-.69-2.13,3.35-6.73,6.77-13.43,10.29-20.3-.25-.55-.5-1.09-.74-1.64-3.22,6.17-6.33,12.39-9.5,18.57-.46.9-1,1.73-1.64,2.82Q133.3,99,106.36,63.94l.27-.3c.59.34,1.2.65,1.77,1q29,18.35,58.06,36.69c-.34-.75-.68-1.5-1-2.25h0L104,60.25l4.09-2c5.63-2.67,11.3-5.29,16.89-8.07,1.73-.86,2.72-.84,4.09.82q16.13,19.67,32.37,39.2-1.08-2.4-2.14-4.79c-10.06-12.14-20-24.14-29.91-36.12h13.74c-.23-.51-.46-1-.68-1.53H130.71c-.05-.18-.09-.35-.14-.54l9.17-5.59c-.19-.43-.38-.86-.58-1.28l-10.28,6.27q2.81-8.52,5.55-16.85l-.85-1.9L130.91,36l-.53-.08q.92-5.53,1.84-11.08c-.35-.78-.7-1.55-1-2.32-1.34,8.1-2.7,16.22-4.06,24.43-9.29-7-20.57-16-29.78-22.86L96,24.88c9.29,7,20.74,16.09,30.26,23.24L103,59.19c-3.8-9.52-10.36-20.59-14.12-30-.41.26-.82.49-1.21.75,3.7,9.3,10.18,20.24,13.9,29.61-17.15,1.95-39.31,5.25-56.26,7.19-.32.34.09.18.19.54s.2.29.32.44c-.15-.18-.05.39.19.36,12.24-1.37,28-4,40.12-5.36l.06.38c-12.57,2.83-25.83,5.66-38.44,8.48l.66,1.27C63.35,69.49,79,66.14,94,62.77c2.43-.54,4.86-1.05,7.55-1.63-6.9,24.51-13.76,50.32-20.65,74.77.32.61.64,1.22,1,1.83,7-24.9,14-51.08,21-76.06,19.06,24.82,37.85,49.25,56.78,73.89-22.3,7.33-44.93,15.08-67.31,22.43l.65,1.26c21.91-7.2,44.35-14.89,66.66-22.22-2.79,7.79-5.42,15.12-8.06,22.45-1.48,4.1-3,8.19-4.43,12.32-.46,1.34-1.11,1.55-2.38,1.39-11-1.45-22-2.83-33.08-4.25-4.64-.59-10-1.21-14.67-1.81.26.49.48,1,.73,1.51,5.38.69,11.53,1.36,16.91,2,10.1,1.29,20.21,2.56,30.29,3.95a2.51,2.51,0,0,1,1.51,1.8c.95,12.17,1.79,24.35,2.69,36.53.23,3.3.54,6.58.86,10.4-13-10.05-26.62-20-39.44-29.93l1.51,2.93c12.27,9.49,25.33,19,37.69,28.58-4.66,5.34-9.74,11.1-14.39,16.43l1.07,2.08.06.13c4.28-5.18,9.18-10.82,13.55-16.54l.91-1,19.23,18.64c-10.45,4.23-21.24,8.91-31.47,13,0,.5,0,1,0,1.51,10.55-4.28,21.64-9.07,32.31-13.4L181,271c-14.12-1.61-28.46-3.2-42.23-4.77v1.41c13.65,1.56,27.87,3.13,41.9,4.74-9.61,10.8-19,21.33-28.58,32.18-4-5.41-8.88-11-13.29-16v2.35c3.67,4.57,7.9,9.63,11.74,14.07-3.75.19-8,.35-11.75.53,0,.48.08,1,.08,1.45l12-.57c-3.85,7.47-8.21,15.77-12,23.18,0,0,0,0,0,0s0,0,0,0,0,0,0,0c0,1,.1,1.5.09,2.5,4.23-8.19,8.93-16.81,13.21-25.11,14.06,22.29,28.72,47.2,42.75,69.45.54,0,1.09,0,1.62-.06-14.27-22.62-29.29-48.1-43.56-70.72,9.6-10.79,19.05-21.43,28.78-32.39,7.05,33.49,14,69.62,21,102.78l1.41-.12C197,342.35,190,306.12,183,272.55l54.71,1.31,1.35,0a2.09,2.09,0,0,1,0-.25v-1.15l-1.35,0-54.53-1.31,31.11-72L245.48,232l1.12,1.17.37-.72.3-.59-1.11-1.17-29.59-31.11c.05-.17.09-.34.14-.5L259,205.75l1.59.25.14-.28.54-1.05-1.6-.25-25.75-4.07c0-.09-16-2-15.87-2,10-.45,36.73-1.88,46.28-2.24a15.34,15.34,0,0,1,1.66,0c0-.07.3-.43.34-.5.21-.38.17-.48.36-.86-.55,0,.36-.07-1.65-.05-15.46.79-29.92,1.56-49.67,2.6.16,0,38.26-52.54,57.45-78.87q7.88,15,15.75,30l.87,1.65.78-1.52-.87-1.65q-6.72-12.8-13.43-25.58l.42-.41,18.39,15.57,1.2,1c.21-.42.43-.84.65-1.26l-1.19-1-20.65-17.5c5.57-.36,10.63-.71,15.7-1s10-.56,15-.9l1.79-.13.72-1.39-1.78.11-31.26,1.89L307,87.76c1.4,5.76,2.77,11.4,4.15,17,.18.75.37,1.5.55,2.26l1-1.92c-.19-.76-.38-1.51-.56-2.25-1.23-5-2.41-9.8-3.56-14.61A2.88,2.88,0,0,1,309,86c5-5,10.19-9.92,15.71-14.67q-1.87,7.26-3.74,14.56c-.57,2.2-1.13,4.4-1.7,6.61.95-1.85,1.91-3.69,2.87-5.54h0l1.71-6.62c.65-2.53,1.31-5.06,2-7.58l.38-.1c.13.8.25,1.6.38,2.4s.27,1.7.41,2.55c.05.27.09.54.13.8l.95-2.89c-.15-.84-.28-1.68-.42-2.52,0-.08,0-.17,0-.25-.09-.63-.13-1.28-.26-2.56l1.23,1,1.2,1c.23-.42.45-.85.66-1.27l-1.21-1-.69-.58.93.12c.18,0,.9,0,1.7,0l.4-.78c.14-.26.27-.52.4-.78C330.89,67.82,327.84,67.79,327.22,67.71ZM162.41,138.85l46.7,54.4-.22.32c-.71-.43-1.43-.84-2.11-1.29q-20-13.28-40.07-26.5a4.66,4.66,0,0,1-2.41-3.71c-.59-5.86-1.22-11.71-1.83-17.56-.18-1.83-.37-3.68-.56-5.5ZM160,140.17h.46c.16,1.27.33,2.54.47,3.82.68,6.35,1.39,12.69,2,19.05a2.31,2.31,0,0,1-.85,1.87c-4.35,2.52-8.75,4.92-13.77,7.7C152.37,161.4,156.21,150.78,160,140.17Zm-9,78c-.2-2.4-.44-4.8-.61-7.21-.86-11.37-1.67-22.75-2.57-34.12a3,3,0,0,1,1.78-3.39c4.37-2.26,8.63-4.71,13.3-7.29-3.87,17.64-7.63,34.85-11.4,52.07Zm1,7c19.55-8.34,38.82-16.53,58.08-24.74.12.14.25.29.36.44l-39.07,43.1ZM182.14,270c-3.24-8.2-6.36-16-9.38-23.92a2.67,2.67,0,0,1,.6-2.19q17.12-19,34.31-37.89c1.1-1.22,2.21-2.42,3.32-3.63l.29.18C201.62,224.93,191.94,247.3,182.14,270Zm-30.36-46.33c4.25-19.45,8.41-38.46,12.63-57.8l48.17,31.91ZM312.93,69.52c-5.19.77-10.3,1.54-15.41,2.32a12,12,0,0,0-1.7.25c-2.42.7-4.36.19-5.87-2.57Zm-24.71.91c3.41,2.74,3.4,2.74,1.83,6.28q-5.08,11.51-10.16,23a4.89,4.89,0,0,1-1.4,2C281.7,91.3,284.94,81,288.22,70.43Zm-12.6,43.36-.36-.19c5.76-13,11.5-26,17.33-39.15,4.59,4,9.06,7.94,13.71,12C296,95.63,285.81,104.72,275.62,113.79ZM307.34,85.5,294,73.77l30.15-4.47Z"/></g><path class="cls-1" d="M138.78,253.55c.14,39.23.11,78.29.12,117.18A188.72,188.72,0,0,1,45.05,66.34q45.75,88.48,91.38,177A23.17,23.17,0,0,1,138.78,253.55Z"/><path class="cls-1" d="M252.08,10.92c-21.74,48.53-42.72,95.37-63.37,141.49-22.07-49.29-42.94-95.9-63.37-141.51a189.5,189.5,0,0,1,126.74,0Z"/><path class="cls-1" d="M377.38,188.69a178.38,178.38,0,0,1-2.51,29.75,180.86,180.86,0,0,1-4.58,20.18c-.3,1.06-.62,2.12-.94,3.18a193.11,193.11,0,0,1-20.14,44.45c-.61,1-1.22,1.95-1.84,2.91a197.33,197.33,0,0,1-29.14,35.63l-2.08,2q-3.22,3-6.59,5.9c-1,.84-2,1.67-3,2.48a183.6,183.6,0,0,1-68.08,35.57V350.31q0-37.46.06-74.9c0-.48,0-1,0-1.43q0-10.22,0-20.43a20.66,20.66,0,0,1,1.88-9.1q3-5.83,6-11.67c.22-.45.45-.89.69-1.33q6.53-12.7,13.07-25.39l.69-1.35c.43-.83.86-1.66,1.28-2.49.25-.46.48-.92.72-1.38q13.69-26.57,27.42-53.11c.26-.51.52-1,.79-1.54q2.73-5.31,5.48-10.61c.22-.43.44-.86.67-1.29l10.22-19.78c.24-.48.49-1,.74-1.43l5.06-9.79,1-1.94,9-17.36c1-1.89,1.95-3.77,2.93-5.66L329,73c.37-.7.73-1.4,1.09-2.1l.94-1.83c.23-.43.45-.86.67-1.29l.24-.47.42-.8s0,0,0,0A187.91,187.91,0,0,1,377.38,188.69Z"/></g></g></svg>