<svg xmlns="http://www.w3.org/2000/svg" viewBox="0 0 105.86 104"><defs><style>.cls-1{fill:#231f20;}</style></defs><g id="Layer_2" data-name="Layer 2"><g id="Layer_1-2" data-name="Layer 1"><path class="cls-1" d="M38.93,71.13c0,11,0,22,0,32.87A52.94,52.94,0,0,1,12.64,18.61Q25.47,43.43,38.27,68.27A6.42,6.42,0,0,1,38.93,71.13Z"/><path class="cls-1" d="M70.71,3.06c-6.09,13.62-12,26.76-17.77,39.69L35.16,3.06a53.16,53.16,0,0,1,35.55,0Z"/><path class="cls-1" d="M105.86,52.93a50.41,50.41,0,0,1-.7,8.35,52,52,0,0,1-1.28,5.66l-.27.89A54.37,54.37,0,0,1,98,80.3l-.51.82a55.34,55.34,0,0,1-8.18,10l-.58.56c-.61.56-1.22,1.11-1.85,1.65L86,94a51.53,51.53,0,0,1-19.1,10V98.27q0-10.5,0-21a2.67,2.67,0,0,1,0-.4c0-1.91,0-3.82,0-5.73a5.71,5.71,0,0,1,.53-2.56l1.68-3.27c.06-.13.13-.25.2-.37L73,57.8l.2-.37c.12-.24.24-.47.35-.7l.21-.39,7.69-14.9c.07-.14.14-.29.22-.43l1.54-3c.06-.12.12-.24.19-.36l2.86-5.55.21-.4L87.9,29c.09-.19.19-.37.28-.55l2.52-4.87L91.52,22l.78-1.51.3-.58.27-.52c.06-.12.12-.24.19-.36l.06-.13.12-.23h0A52.77,52.77,0,0,1,105.86,52.93Z"/></g></g></svg>